{"title":"Rain.Fall.2009.CUSTOM.SWESUB.DVDRip.XviD.AC3-Zen_Bud","uid":5781055,"size":1465819922,"categoryP":"video","categoryS":"movies","magnet":"?xt=urn:btih:2fe3245a3e433c569f8fa2350d1ac8ebc7267322&amp;dn=Rain.Fall.2009.CUSTOM.SWESUB.DVDRip.XviD.AC3-Zen_Bud&amp;tr=udp%3A%2F%2Ftracker.openbittorrent.com%3A80&amp;tr=udp%3A%2F%2Fopen.demonii.com%3A1337&amp;tr=udp%3A%2F%2Ftracker.coppersurfer.tk%3A6969&amp;tr=udp%3A%2F%2Fexodus.desync.com%3A6969","seeders":0,"leechers":1,"uploader":"Zen_Bud","files":-1,"time":1282406127,"description":"General\nComplete name                    : Rain.Fall.2009.CUSTOM.SWESUB.avi\nFormat                           : AVI\nFile size                        : 1.37 GiB\nDuration                         : 1h 50mn\nOverall bit rate                 : 1 766 Kbps\n\nVideo\nID                               : 0\nFormat                           : MPEG-4 Visual\nCodec ID/Hint                    : XviD\nDuration                         : 1h 50mn\nBit rate                         : 1 307 Kbps\nWidth                            : 718 pixels\nHeight                           : 354 pixels\nDisplay aspect ratio             : 2.40:1\nStream size                      : 1.01 GiB (74%)\nWriting library                  : XviD 1.1.2 (UTC 2006-11-01)\n\nAudio\n\nFormat                           : AC-3\nDuration                         : 1h 50mn\nBit rate                         : 448 Kbps\nChannel(s)                       : 6 channels\nChannel positions                : Front: L C R, Side: L R, LFE\nSampling rate                    : 48.0 KHz\nBit depth                        : 16 bits\nStream size                      : 355 MiB (25%)\n\n\n*****************Text.........: Djmange......THX :D***************","torrent":{"xt":"urn:btih:2fe3245a3e433c569f8fa2350d1ac8ebc7267322","amp;dn":"Rain.Fall.2009.CUSTOM.SWESUB.DVDRip.XviD.AC3-Zen_Bud","amp;tr":["udp%3A%2F%2Ftracker.openbittorrent.com%3A80","udp%3A%2F%2Fopen.demonii.com%3A1337","udp%3A%2F%2Ftracker.coppersurfer.tk%3A6969","udp%3A%2F%2Fexodus.desync.com%3A6969"],"infoHash":"2fe3245a3e433c569f8fa2350d1ac8ebc7267322","infoHashBuffer":{"type":"Buffer","data":[47,227,36,90,62,67,60,86,159,143,162,53,13,26,200,235,199,38,115,34]},"announce":[],"urlList":[]}}